# xmcd
#
# Track frame offsets: 
#        150
#        15175
#        31190
#        48099
#        66363
#        82904
#        100907
#        115239
#        130790
#        146145
#
# Disc length: 2163 seconds
#
# Revision: 0
# Processed by: cddbd v1.5.2PL0 Copyright (c) Steve Scherf et al.
# Submitted via: ExactAudioCopy v0.99pb4
#
DISCID=7708710a
DTITLE=ส้ม สุดา - หล่อระยะสุดท้าย
DYEAR=2009
DGENRE=Country
TTITLE0=หล่อระยะสุดท้าย
TTITLE1=ตาซอกแซก
TTITLE2=มองตาน่ารู้ใจ
TTITLE3=ยืมควงกินข้าว
TTITLE4=ส่งใจไปทางเนต
TTITLE5=ตุ้มเป๊ะเลยพี่
TTITLE6=เรื่องไม่ยาก
TTITLE7=คนที่ไม่ใช่
TTITLE8=อย่าแถลบ
TTITLE9=อย่ามองน้องเมีย
EXTD=
EXTT0=
EXTT1=
EXTT2=
EXTT3=
EXTT4=
EXTT5=
EXTT6=
EXTT7=
EXTT8=
EXTT9=
PLAYORDER=
